<svg xmlns="http://www.w3.org/2000/svg" xmlns:xlink="http://www.w3.org/1999/xlink" id="Layer_1" x="0px" y="0px" viewBox="0 0 173.6 224.8" style="enable-background:new 0 0 173.6 224.8;" xml:space="preserve">
<style type="text/css">
	.st0{fill-rule:evenodd;clip-rule:evenodd;fill:#FFFFFF;}
	.st1{fill-rule:evenodd;clip-rule:evenodd;fill:#FFD200;}
	.st2{fill:#15397F;}
	.st3{fill-rule:evenodd;clip-rule:evenodd;fill:#15397F;}
</style>
<g>
	<path class="st0" d="M86.4,223.2c-22.8,0-45.2-6.4-64.5-18.4l4.4-7c-2.8-1.8-5.6-3.6-8.2-5.6l10.1-13.5   C19.3,171.2,12,162,7.3,151.4c-3.8-8.7-5.8-18-5.8-27.5V1.4h170.5v122.5c0,9.5-2,18.8-5.8,27.5c-4.8,10.8-12.1,20.1-21.2,27.6   l9.9,13.2c-2.6,2-5.4,3.9-8.2,5.6l4.4,7C131.6,216.8,109.2,223.2,86.4,223.2L86.4,223.2L86.4,223.2z"></path>
	<path class="st1" d="M67.4,23.9c2.9,0,5.1,2.4,5.2,5.2l2.1,39.1L49.3,23.9H67.4L67.4,23.9z M72.9,72.2H17.1c-2.9,0-5.2-2.4-5.2-5.2   V53.9L72.9,72.2L72.9,72.2z M11.9,43V23.9h22.9l35.9,44.8L11.9,43L11.9,43z M106,23.9c-2.9,0-5.1,2.4-5.2,5.2l-2.1,39.1l25.4-44.3   H106L106,23.9z M100.5,72.2h55.8c2.9,0,5.2-2.4,5.2-5.2V53.9L100.5,72.2L100.5,72.2z M161.5,43V23.9h-22.9l-35.9,44.8L161.5,43   L161.5,43z"></path>
	<polygon class="st2" points="11.9,7.7 15.2,7.7 15.2,12.9 18.9,7.7 22.5,7.7 18.1,13.3 23,19.8 19,19.8 15.2,14.2 15.2,19.8    11.9,19.8 11.9,7.7  "></polygon>
	<path class="st2" d="M23.8,10.8h3.1v9h-3.1V10.8L23.8,10.8z M23.8,6.7h3.1v2.5h-3.1V6.7L23.8,6.7z"></path>
	<path class="st2" d="M38.7,14.6v5.2h-3v-4.6c0-0.7-0.1-1.2-0.4-1.6c-0.2-0.3-0.6-0.5-1.1-0.5c-0.5,0-1,0.2-1.3,0.6   c-0.3,0.4-0.5,1-0.5,1.7v4.3h-3.1v-9h2.8v1.6c0.4-0.6,0.8-1.1,1.4-1.4c0.6-0.3,1.2-0.5,1.9-0.5c1.1,0,1.9,0.3,2.5,1   C38.4,12.3,38.7,13.3,38.7,14.6L38.7,14.6z"></path>
	<path class="st2" d="M45.4,12.9c-0.6,0-1,0.2-1.3,0.6c-0.3,0.4-0.5,1-0.5,1.6c0,0.7,0.2,1.2,0.5,1.6c0.3,0.4,0.8,0.6,1.3,0.6   c0.5,0,1-0.2,1.3-0.6c0.3-0.4,0.5-1,0.5-1.6c0-0.7-0.2-1.2-0.5-1.6C46.4,13.1,45.9,12.9,45.4,12.9L45.4,12.9z M47.5,12.3v-1.4h2.8   v7.8c0,1.7-0.4,2.9-1.3,3.7c-0.9,0.8-2.2,1.2-4,1.2c-0.7,0-1.3,0-1.9-0.1c-0.6-0.1-1.2-0.2-1.7-0.4l0.2-2.3c0.5,0.2,1,0.4,1.5,0.6   c0.5,0.1,1,0.2,1.5,0.2c0.9,0,1.6-0.2,2-0.6c0.5-0.4,0.7-1,0.7-1.7v-0.8c-0.4,0.5-0.8,0.9-1.3,1.1c-0.5,0.2-1.1,0.4-1.7,0.4   c-1.2,0-2.1-0.4-2.9-1.2c-0.7-0.8-1.1-1.9-1.1-3.3c0-1.4,0.4-2.5,1.1-3.3c0.8-0.8,1.7-1.3,2.9-1.3c0.6,0,1.2,0.1,1.7,0.4   C46.6,11.3,47.1,11.7,47.5,12.3L47.5,12.3z"></path>
	<path class="st2" d="M59.1,11.1l-0.3,2.2c-0.4-0.2-0.8-0.4-1.2-0.5c-0.4-0.1-0.8-0.2-1.2-0.2c-0.4,0-0.7,0.1-0.9,0.2   c-0.2,0.1-0.3,0.3-0.3,0.6c0,0.3,0.4,0.6,1.2,0.8c0.3,0.1,0.5,0.1,0.6,0.2c1,0.3,1.6,0.6,2,1c0.4,0.4,0.6,1,0.6,1.7   c0,0.9-0.4,1.7-1.1,2.2c-0.7,0.5-1.8,0.8-3,0.8c-0.5,0-1.1,0-1.6-0.1c-0.5-0.1-1.1-0.2-1.6-0.4l0.2-2.3c0.4,0.2,0.9,0.4,1.3,0.5   c0.5,0.1,0.9,0.2,1.4,0.2c0.5,0,0.8-0.1,1-0.2c0.2-0.1,0.3-0.3,0.3-0.5c0-0.4-0.5-0.7-1.4-1c-0.2-0.1-0.4-0.1-0.5-0.2   c-0.9-0.3-1.6-0.6-2-1c-0.4-0.4-0.6-0.9-0.6-1.5c0-0.9,0.4-1.7,1.1-2.2c0.7-0.5,1.8-0.8,3.1-0.8c0.4,0,0.9,0,1.3,0.1   C58.1,10.8,58.6,10.9,59.1,11.1L59.1,11.1z"></path>
	<path class="st2" d="M60.2,7.7h3.2l1.4,8.3c0,0.3,0.1,0.6,0.1,0.9c0,0.3,0.1,0.7,0.1,1c0-0.3,0-0.7,0.1-1c0-0.3,0.1-0.6,0.1-0.9   l1.4-8.4h4.1l1.5,8.3c0.1,0.2,0.1,0.5,0.1,0.8c0,0.3,0.1,0.7,0.1,1.1c0.1-0.6,0.1-1,0.1-1.3c0-0.2,0.1-0.4,0.1-0.6L74,7.7h3   l-2.6,12.1h-4.1l-1.6-8.6c0-0.1-0.1-0.4-0.1-0.7c0-0.3-0.1-0.8-0.1-1.3c0,0.6-0.1,1-0.1,1.3c0,0.3,0,0.5-0.1,0.6L67,19.8h-4.1   L60.2,7.7L60.2,7.7z"></path>
	<path class="st2" d="M82.8,15.7c-0.9,0-1.6,0.1-1.9,0.3c-0.4,0.2-0.6,0.5-0.6,0.9c0,0.3,0.1,0.6,0.3,0.8c0.2,0.2,0.5,0.3,0.8,0.3   c0.6,0,1-0.2,1.4-0.6c0.4-0.4,0.5-0.9,0.5-1.5v-0.3H82.8L82.8,15.7z M86.2,15.1v4.7h-2.7l-0.1-1.4c-0.4,0.5-0.8,0.9-1.3,1.1   c-0.5,0.2-1.1,0.4-1.9,0.4c-0.9,0-1.6-0.3-2.2-0.8c-0.5-0.5-0.8-1.2-0.8-2.1c0-1,0.4-1.7,1.2-2.2c0.8-0.5,2-0.7,3.6-0.7h1.2V14   c0-0.5-0.2-0.9-0.6-1.1c-0.4-0.3-0.9-0.4-1.6-0.4c-0.4,0-0.8,0.1-1.2,0.2c-0.5,0.1-0.9,0.3-1.4,0.5l-0.1-2c0.5-0.2,1-0.4,1.6-0.5   c0.6-0.1,1.2-0.2,1.9-0.2c1.5,0,2.5,0.4,3.2,1.1C85.8,12.4,86.2,13.5,86.2,15.1L86.2,15.1z"></path>
	<path class="st2" d="M87.4,10.8h3.3l2,6.3l1.9-6.3h3.1l-3.5,8.7c-0.3,0.9-0.6,1.5-0.8,1.9c-0.2,0.4-0.4,0.7-0.7,0.9   c-0.4,0.4-0.8,0.7-1.3,0.9c-0.5,0.2-1,0.3-1.7,0.3c-0.2,0-0.5,0-0.8,0c-0.3,0-0.6-0.1-0.9-0.1l0.3-2.3c0.2,0.1,0.3,0.1,0.5,0.1   c0.2,0,0.3,0,0.5,0c0.4,0,0.8-0.1,1.1-0.3c0.3-0.2,0.5-0.5,0.8-0.9L87.4,10.8L87.4,10.8z"></path>
	<path class="st2" d="M112.2,7.8l-0.2,2.5c-0.5-0.2-1-0.4-1.4-0.5c-0.5-0.1-0.9-0.2-1.3-0.2c-0.7,0-1.2,0.1-1.5,0.3   c-0.4,0.2-0.5,0.5-0.5,0.9c0,0.3,0.1,0.5,0.3,0.7c0.2,0.2,0.5,0.3,0.8,0.5c0.1,0,0.3,0.1,0.5,0.2c1.4,0.4,2.3,0.8,2.8,1.2   c0.4,0.3,0.7,0.7,0.9,1.1c0.2,0.4,0.3,0.9,0.3,1.5c0,1.3-0.4,2.3-1.3,3c-0.9,0.7-2.2,1.1-3.8,1.1c-0.6,0-1.2,0-1.8-0.1   c-0.6-0.1-1.2-0.2-1.8-0.4l0.3-2.7c0.6,0.3,1.1,0.5,1.7,0.6c0.5,0.1,1,0.2,1.5,0.2c0.6,0,1.1-0.1,1.5-0.4c0.4-0.2,0.6-0.6,0.6-1   c0-0.5-0.6-1-1.8-1.4c-0.3-0.1-0.5-0.2-0.7-0.2c-1.2-0.4-2-0.9-2.5-1.4c-0.5-0.5-0.7-1.2-0.7-2.1c0-1.2,0.4-2.1,1.3-2.8   c0.9-0.7,2.1-1,3.7-1c0.6,0,1.2,0,1.7,0.1C111.1,7.6,111.7,7.7,112.2,7.8L112.2,7.8z"></path>
	<path class="st2" d="M121.7,11.1l-0.2,2.2c-0.3-0.2-0.6-0.3-0.9-0.4c-0.3-0.1-0.6-0.1-0.9-0.1c-0.8,0-1.4,0.2-1.8,0.7   c-0.4,0.5-0.7,1.1-0.7,1.8c0,0.7,0.2,1.3,0.7,1.8c0.5,0.4,1.1,0.7,1.9,0.7c0.3,0,0.7,0,1-0.1c0.3-0.1,0.6-0.2,0.9-0.4l0.1,2.4   c-0.4,0.1-0.8,0.2-1.3,0.3c-0.5,0.1-1,0.1-1.5,0.1c-1.5,0-2.6-0.4-3.5-1.3c-0.9-0.9-1.4-2-1.4-3.4c0-1.5,0.5-2.6,1.4-3.5   c0.9-0.8,2.2-1.3,3.8-1.3c0.4,0,0.8,0,1.2,0.1C120.9,10.8,121.3,10.9,121.7,11.1L121.7,11.1z"></path>
	<path class="st2" d="M123.7,6.7h3.1v5.4c0.3-0.5,0.7-0.9,1.2-1.1c0.5-0.3,1.1-0.4,1.7-0.4c1.1,0,1.9,0.3,2.5,1   c0.6,0.7,0.9,1.7,0.9,2.9v5.2h-3v-4.6c0-0.7-0.1-1.2-0.4-1.6c-0.2-0.3-0.6-0.5-1.1-0.5c-0.5,0-1,0.2-1.3,0.6   c-0.3,0.4-0.5,1-0.5,1.7v4.3h-3.1V6.7L123.7,6.7z"></path>
	<path class="st2" d="M139.9,12.7c-0.6,0-1,0.2-1.4,0.7c-0.4,0.5-0.5,1.1-0.5,1.9c0,0.8,0.2,1.4,0.5,1.8c0.4,0.5,0.8,0.7,1.4,0.7   c0.6,0,1.1-0.2,1.4-0.7c0.4-0.5,0.5-1.1,0.5-1.9c0-0.8-0.2-1.4-0.5-1.9C140.9,13,140.5,12.7,139.9,12.7L139.9,12.7z M139.9,10.6   c1.6,0,2.9,0.4,3.8,1.3c0.9,0.8,1.4,2,1.4,3.5c0,1.5-0.5,2.6-1.4,3.5c-0.9,0.8-2.2,1.3-3.8,1.3c-1.6,0-2.9-0.4-3.8-1.3   c-0.9-0.8-1.4-2-1.4-3.5c0-1.5,0.5-2.6,1.4-3.5C137,11,138.3,10.6,139.9,10.6L139.9,10.6z"></path>
	<path class="st2" d="M151.5,12.7c-0.6,0-1,0.2-1.4,0.7c-0.4,0.5-0.5,1.1-0.5,1.9c0,0.8,0.2,1.4,0.5,1.8c0.4,0.5,0.8,0.7,1.4,0.7   c0.6,0,1.1-0.2,1.4-0.7c0.4-0.5,0.5-1.1,0.5-1.9c0-0.8-0.2-1.4-0.5-1.9C152.5,13,152.1,12.7,151.5,12.7L151.5,12.7z M151.5,10.6   c1.6,0,2.9,0.4,3.8,1.3c0.9,0.8,1.4,2,1.4,3.5c0,1.5-0.5,2.6-1.4,3.5c-0.9,0.8-2.2,1.3-3.8,1.3c-1.6,0-2.9-0.4-3.8-1.3   c-0.9-0.8-1.4-2-1.4-3.5c0-1.5,0.5-2.6,1.4-3.5C148.6,11,149.9,10.6,151.5,10.6L151.5,10.6z"></path>
	<polygon class="st2" points="158.5,6.7 161.5,6.7 161.5,19.8 158.5,19.8 158.5,6.7  "></polygon>
	<path class="st3" d="M96.2,92l4.3,0.2l45.4,70.8c-5.7,6.6-12.7,11.9-20.4,16L96.2,92L96.2,92z M103.1,92.4l26.7,1.4l28.9,46   c-0.7,2.5-1.6,5-2.7,7.4c-2.3,5.2-5.2,9.9-8.7,14.2L103.1,92.4L103.1,92.4z M132.3,93.9l20.4,1.1c4.5,0.2,8.3,4.2,8.3,8.7v20.2   c0,4.5-0.5,8.9-1.5,13.2L132.3,93.9L132.3,93.9z M76.7,92l-4.3,0.2L27,163.1c5.7,6.6,12.7,11.9,20.4,16L76.7,92L76.7,92z    M69.7,92.4L43,93.8l-28.9,46c0.7,2.5,1.6,5,2.7,7.4c2.3,5.2,5.2,9.9,8.7,14.2L69.7,92.4L69.7,92.4z M40.6,93.9L20.2,95   c-4.5,0.2-8.3,4.2-8.3,8.7v20.2c0,4.5,0.5,8.9,1.5,13.2L40.6,93.9L40.6,93.9z"></path>
	<path class="st3" d="M86.4,223.2c-22.8,0-45.2-6.4-64.5-18.4l4.4-7c-2.8-1.8-5.6-3.6-8.2-5.6l10.1-13.5   C19.3,171.2,12,162,7.3,151.4c-3.8-8.7-5.8-18-5.8-27.5V1.4h170.5v122.5c0,9.5-2,18.8-5.8,27.5c-4.8,10.8-12.1,20.1-21.2,27.6   l9.9,13.2c-2.6,2-5.4,3.9-8.2,5.6l4.4,7C131.6,216.8,109.2,223.2,86.4,223.2L86.4,223.2L86.4,223.2z M28.9,177.6l2.8-3.7   c3.8,2.8,7.8,5.4,11.9,7.6l-1.8,3.4c13.3,7.1,28.5,11.1,44.6,11.1h0l0,0c16.1,0,31.3-4,44.6-11.1l-1.8-3.4   c4.2-2.2,8.2-4.8,11.9-7.6l3,4c16.3-13.5,26.4-32.7,26.4-54V2.8H2.8v121.1C2.8,145,12.8,164.1,28.9,177.6L28.9,177.6z M136.6,181.6   l-1.3-2.1c1.9-1.2,3.8-2.5,5.6-3.8l12.1,16.1c-2.3,1.7-4.6,3.2-7,4.7L136.6,181.6L136.6,181.6L136.6,181.6z M36.3,181.6l1.3-2.1   c-1.9-1.2-3.8-2.5-5.6-3.8l-12.1,16.1c2.3,1.7,4.6,3.2,7,4.7L36.3,181.6L36.3,181.6L36.3,181.6z M36.7,183.5l-12.9,20.8   c18.9,11.4,40.6,17.5,62.7,17.5h0l0,0c22.1,0,43.8-6.1,62.7-17.5l-12.9-20.8c-15,9-32.2,13.8-49.7,13.8h0   C68.8,197.3,51.7,192.5,36.7,183.5L36.7,183.5z"></path>
	<path class="st2" d="M42.4,196.4l-0.8,1.2c-0.2-0.3-0.5-0.6-0.7-0.8c-0.3-0.2-0.5-0.4-0.8-0.6c-0.4-0.2-0.8-0.3-1.1-0.3   c-0.3,0-0.6,0.2-0.7,0.5c-0.2,0.4,0,1,0.7,1.9c0.1,0.1,0.1,0.2,0.1,0.2c0.6,0.8,0.9,1.5,1,2.1c0.1,0.5,0,1-0.3,1.6   c-0.4,0.8-1,1.2-1.8,1.4c-0.8,0.2-1.7,0-2.6-0.5c-0.4-0.2-0.9-0.7-1.7-1.4c-0.1-0.1-0.1-0.1-0.2-0.2l0.9-1.3   c0.3,0.5,0.6,0.8,0.9,1.1c0.3,0.3,0.5,0.5,0.8,0.6c0.4,0.2,0.8,0.3,1.2,0.3c0.4-0.1,0.6-0.2,0.8-0.5c0.2-0.4,0-1.1-0.6-2l-0.1-0.1   c0,0-0.1-0.1-0.1-0.2c-0.5-0.7-0.7-1.2-0.9-1.7c-0.1-0.3-0.1-0.6-0.1-0.9c0-0.3,0.1-0.6,0.3-0.9c0.4-0.7,0.9-1.1,1.7-1.2   c0.8-0.1,1.6,0,2.5,0.5c0.4,0.2,0.8,0.6,1.4,1.1C42.3,196.2,42.4,196.3,42.4,196.4L42.4,196.4z"></path>
	<path class="st2" d="M47.9,204.6l-0.2,0.5l-4.4-1.8c-0.2,0.5-0.1,1,0.1,1.5c0.2,0.4,0.7,0.8,1.2,1c0.3,0.1,0.7,0.2,1,0.3   c0.3,0,0.7,0.1,1,0l-0.5,1.2c-0.4,0-0.7,0-1.1-0.1c-0.4-0.1-0.8-0.2-1.2-0.4c-1-0.4-1.7-1-2.1-1.9c-0.3-0.8-0.3-1.8,0.1-2.8   c0.4-0.9,1-1.6,1.8-1.9c0.8-0.4,1.7-0.3,2.6,0c0.9,0.4,1.5,0.9,1.8,1.7C48.3,202.7,48.3,203.6,47.9,204.6L47.9,204.6z M46.6,203.5   c0.2-0.5,0.2-1,0.1-1.4c-0.1-0.4-0.4-0.7-0.8-0.8c-0.4-0.2-0.8-0.2-1.2,0c-0.4,0.2-0.7,0.5-1,1L46.6,203.5L46.6,203.5z"></path>
	<path class="st2" d="M54.7,203.3l-0.6,1.4c-0.1-0.1-0.2-0.1-0.2-0.2c-0.1,0-0.2-0.1-0.3-0.1c-0.5-0.2-1-0.1-1.4,0.1   c-0.4,0.3-0.7,0.7-1,1.4l-1,3l-1.6-0.6l2.2-6.3l1.5,0.5l-0.4,1.3c0.4-0.4,0.7-0.7,1.1-0.8c0.4-0.1,0.8-0.1,1.2,0   c0.1,0,0.2,0.1,0.2,0.1C54.5,203.2,54.6,203.2,54.7,203.3L54.7,203.3z"></path>
	<polygon class="st2" points="55.5,203.7 57.3,204.2 57.4,209.6 60.5,205.1 62.1,205.5 57.9,211.3 56,210.8 55.5,203.7  "></polygon>
	<path class="st2" d="M66,209.9c-0.7-0.1-1.2-0.1-1.6,0c-0.4,0.1-0.6,0.4-0.7,0.8c-0.1,0.3,0,0.5,0.2,0.8c0.2,0.2,0.4,0.4,0.7,0.4   c0.5,0.1,0.9,0,1.2-0.3c0.4-0.3,0.6-0.7,0.7-1.2l0.1-0.4L66,209.9L66,209.9z M68.4,209.7l-0.7,3.8l-1.5-0.3l0.2-1.1   c-0.4,0.4-0.7,0.6-1.2,0.7c-0.4,0.1-0.9,0.2-1.3,0.1c-0.7-0.1-1.2-0.4-1.5-0.9c-0.3-0.5-0.4-1-0.3-1.6c0.1-0.7,0.5-1.2,1.2-1.5   c0.7-0.3,1.6-0.3,2.7,0l0.9,0.2l0-0.1c0.1-0.4,0-0.8-0.2-1.1c-0.2-0.3-0.6-0.5-1.1-0.6c-0.3-0.1-0.6-0.1-0.9,0   c-0.3,0-0.7,0.1-1.1,0.2l0.2-1.2c0.4-0.1,0.8-0.1,1.2-0.1c0.4,0,0.8,0,1.2,0.1c1,0.2,1.7,0.6,2,1.1   C68.5,207.8,68.6,208.6,68.4,209.7L68.4,209.7z"></path>
	<path class="st2" d="M77.3,210.7l-0.6,4l-1.7-0.2l0.5-3.6c0.1-0.6,0-1.1-0.1-1.4c-0.2-0.3-0.5-0.5-0.9-0.6   c-0.5-0.1-0.9,0.1-1.2,0.4c-0.3,0.3-0.5,0.8-0.6,1.5l-0.5,3.3l-1.7-0.2l0.9-6.7l1.6,0.2l-0.2,1.2c0.3-0.4,0.7-0.7,1.1-0.9   c0.4-0.2,0.9-0.2,1.4-0.2c0.8,0.1,1.3,0.4,1.7,1C77.3,209,77.4,209.8,77.3,210.7L77.3,210.7z"></path>
	<path class="st2" d="M82.1,205.9l-0.1,2.2l1.6,0.1l0,1.3l-1.6-0.1l-0.1,2.9c0,0.5,0,0.9,0.2,1.1c0.1,0.2,0.4,0.3,0.7,0.4   c0.1,0,0.2,0,0.3,0c0.1,0,0.2,0,0.4-0.1l0,1.2c-0.2,0-0.4,0.1-0.6,0.1c-0.2,0-0.4,0-0.6,0c-0.8,0-1.4-0.2-1.7-0.6   c-0.3-0.4-0.5-1.1-0.4-2l0.1-3l-1.3,0l0-1.3l1.4,0l0.1-1.6L82.1,205.9L82.1,205.9z"></path>
	<polygon class="st2" points="89.3,205.6 91.1,205.5 91.4,213.3 95.1,213.2 95.1,214.6 89.6,214.8 89.3,205.6  "></polygon>
	<path class="st2" d="M102.6,210.2l0.1,0.5l-4.7,0.7c0.1,0.6,0.4,1,0.8,1.2c0.4,0.3,1,0.4,1.6,0.3c0.3,0,0.7-0.1,1-0.3   c0.3-0.1,0.6-0.3,0.9-0.5l0.2,1.3c-0.3,0.2-0.6,0.3-1,0.4c-0.4,0.1-0.8,0.2-1.2,0.3c-1.1,0.2-2,0-2.7-0.6c-0.7-0.6-1.2-1.4-1.3-2.5   c-0.1-1,0-1.9,0.6-2.6c0.5-0.7,1.3-1.1,2.2-1.3c1-0.1,1.8,0.1,2.4,0.6C102,208.3,102.4,209.1,102.6,210.2L102.6,210.2z M101,209.9   c-0.1-0.6-0.3-1-0.7-1.2c-0.3-0.3-0.7-0.4-1.1-0.3c-0.4,0.1-0.8,0.3-1,0.6c-0.2,0.4-0.4,0.8-0.3,1.4L101,209.9L101,209.9z"></path>
	<path class="st2" d="M108,209.5c-0.7,0.1-1.2,0.3-1.5,0.6c-0.3,0.3-0.4,0.6-0.4,1c0.1,0.3,0.2,0.5,0.4,0.6c0.2,0.1,0.5,0.2,0.8,0.1   c0.5-0.1,0.8-0.3,1.1-0.7c0.2-0.4,0.3-0.8,0.2-1.4l-0.1-0.4L108,209.5L108,209.5z M110.1,208.5l0.7,3.8l-1.5,0.3l-0.2-1.1   c-0.2,0.5-0.5,0.8-0.8,1.1c-0.3,0.3-0.7,0.5-1.2,0.6c-0.7,0.1-1.2,0-1.7-0.3c-0.5-0.3-0.8-0.8-0.9-1.4c-0.1-0.7,0-1.3,0.5-1.8   c0.5-0.5,1.3-0.8,2.5-1.1l0.9-0.2l0-0.1c-0.1-0.4-0.3-0.8-0.6-1c-0.3-0.2-0.8-0.2-1.3-0.1c-0.3,0.1-0.6,0.2-0.9,0.3   c-0.3,0.2-0.6,0.3-0.9,0.6l-0.3-1.2c0.4-0.2,0.7-0.4,1.1-0.6c0.4-0.2,0.7-0.3,1.1-0.3c1-0.2,1.8-0.1,2.3,0.3   C109.5,206.7,109.9,207.5,110.1,208.5L110.1,208.5z"></path>
	<path class="st2" d="M114.9,205.5c-0.4,0.1-0.8,0.4-0.9,0.9c-0.2,0.5-0.2,1,0,1.7c0.2,0.6,0.5,1.1,0.9,1.4c0.4,0.3,0.8,0.4,1.3,0.2   c0.5-0.1,0.8-0.4,1-0.9c0.2-0.5,0.2-1,0-1.6c-0.2-0.7-0.5-1.1-0.9-1.4C115.9,205.4,115.4,205.3,114.9,205.5L114.9,205.5z    M115.4,200.8l1.7-0.5l2.7,9.5l-1.5,0.4l-0.4-1.3c-0.1,0.5-0.4,1-0.7,1.3c-0.3,0.3-0.7,0.6-1.3,0.7c-0.8,0.2-1.5,0.1-2.2-0.4   c-0.7-0.5-1.2-1.2-1.5-2.3c-0.3-1-0.3-1.8,0.1-2.6c0.3-0.7,0.9-1.2,1.7-1.5c0.5-0.1,0.9-0.2,1.4-0.1c0.4,0.1,0.8,0.3,1.2,0.6   L115.4,200.8L115.4,200.8z"></path>
	<path class="st2" d="M127,203.9l0.2,0.5l-4.5,1.5c0.2,0.5,0.6,0.9,1.1,1c0.5,0.2,1,0.2,1.6,0c0.3-0.1,0.6-0.3,0.9-0.4   c0.3-0.2,0.5-0.4,0.8-0.7l0.4,1.3c-0.3,0.2-0.6,0.4-0.9,0.6c-0.3,0.2-0.7,0.3-1.1,0.5c-1.1,0.4-2,0.3-2.8-0.1   c-0.8-0.4-1.4-1.1-1.8-2.2c-0.3-1-0.3-1.8,0.1-2.6c0.4-0.8,1-1.4,2-1.7c0.9-0.3,1.7-0.3,2.4,0.1C126.1,202.1,126.6,202.9,127,203.9   L127,203.9z M125.4,203.9c-0.2-0.5-0.5-0.9-0.9-1.1c-0.4-0.2-0.7-0.2-1.2-0.1c-0.4,0.1-0.7,0.4-0.9,0.8c-0.2,0.4-0.2,0.9-0.1,1.4   L125.4,203.9L125.4,203.9z"></path>
	<path class="st2" d="M131.1,198.3l0.6,1.4c-0.1,0-0.2,0-0.3,0.1c-0.1,0-0.2,0.1-0.3,0.1c-0.5,0.2-0.8,0.6-0.9,1.1   c-0.1,0.5,0,1,0.3,1.7l1.3,2.8l-1.6,0.7l-2.8-6.1l1.4-0.7l0.6,1.2c0-0.5,0.1-1,0.3-1.4c0.2-0.4,0.5-0.6,0.9-0.8   c0.1,0,0.2-0.1,0.2-0.1C130.9,198.3,131,198.3,131.1,198.3L131.1,198.3z"></path>
	<path class="st2" d="M136.6,196l0.5,1.2c-0.3,0-0.6,0-0.9,0.1c-0.3,0.1-0.6,0.2-0.8,0.3c-0.3,0.1-0.5,0.3-0.6,0.5   c-0.1,0.2-0.1,0.3,0,0.5c0.1,0.3,0.6,0.4,1.4,0.3c0.1,0,0.1,0,0.2,0c0.8-0.1,1.4,0,1.8,0.1c0.4,0.1,0.7,0.4,0.9,0.8   c0.3,0.6,0.3,1.1,0,1.7c-0.3,0.6-0.8,1.1-1.6,1.5c-0.3,0.2-0.7,0.3-1,0.4c-0.3,0.1-0.7,0.2-1,0.2l-0.5-1.2c0.4,0,0.7-0.1,1-0.1   c0.3-0.1,0.6-0.2,0.9-0.4c0.3-0.2,0.5-0.3,0.6-0.5c0.1-0.2,0.1-0.4,0-0.6c-0.2-0.3-0.7-0.4-1.7-0.4l0,0c-0.7,0-1.3,0-1.6-0.2   c-0.3-0.1-0.6-0.4-0.8-0.7c-0.3-0.5-0.3-1.1,0-1.6c0.3-0.6,0.8-1,1.5-1.4c0.2-0.1,0.4-0.2,0.7-0.3   C135.7,196.2,136.1,196.1,136.6,196L136.6,196z"></path>
	<polygon class="st2" points="71.7,178.5 68.3,178.5 68.3,169.7 69.6,169.7 69.6,177.3 71.7,177.3 71.7,178.5  "></polygon>
	<path class="st2" d="M76.2,178.5h-1.3v-0.2c-0.3,0.1-0.6,0.1-0.9,0.1c-0.4,0.1-0.7,0.1-0.9,0.1c-0.5,0-0.7-0.2-0.7-0.7v-5h1.3v4.6   l1.2,0v-4.6h1.3V178.5L76.2,178.5z"></path>
	<polygon class="st2" points="80.9,178.5 79.6,178.5 78.4,175.9 78.4,178.5 77.2,178.5 77.2,169.7 78.4,169.7 78.4,175 79.5,172.8    80.8,172.8 80.8,172.8 79.5,175.4 80.9,178.5  "></polygon>
	<path class="st2" d="M85.2,177.8c0,0.5-0.2,0.7-0.7,0.7h-2.2c-0.5,0-0.7-0.2-0.7-0.7v-4.3c0-0.5,0.2-0.7,0.7-0.7h2.2   c0.5,0,0.7,0.2,0.7,0.7v2.1l-0.4,0.4h-2.1v1.6h1.2v-0.9h1.2V177.8L85.2,177.8z M83.9,175.1v-1.4h-1.2v1.4H83.9L83.9,175.1z"></path>
	<path class="st2" d="M92.7,172.2c0,0.3-0.1,0.6-0.3,0.9l-2.4,4.2h2.7v1.2h-4.3v-0.8l3-5.2v-1.6h-1.6v1.6h-1.3v-2   c0-0.5,0.3-0.8,0.8-0.8h2.6c0.5,0,0.8,0.3,0.8,0.8V172.2L92.7,172.2z"></path>
	<path class="st2" d="M94.8,174.9h-1.3v-1.4h1.3V174.9L94.8,174.9z M94.8,178.5h-1.3v-1.4h1.3V178.5L94.8,178.5z"></path>
	<path class="st2" d="M99.9,177.7c0,0.5-0.3,0.8-0.8,0.8h-2.6c-0.5,0-0.8-0.3-0.8-0.8v-2H97v1.7h1.6V174h-2.9l0.1-4.3h4v1.2h-2.8   l-0.1,2h2.1c0.5,0,0.8,0.3,0.8,0.8V177.7L99.9,177.7z"></path>
	<path class="st2" d="M105.1,172.2c0,0.3-0.1,0.6-0.3,0.9l-2.4,4.2h2.7v1.2h-4.3v-0.8l3-5.2v-1.6h-1.6v1.6h-1.3v-2   c0-0.5,0.3-0.8,0.8-0.8h2.6c0.5,0,0.8,0.3,0.8,0.8V172.2L105.1,172.2z"></path>
</g>
</svg>